<?xml version="1.0" standalone="no"?>
<!DOCTYPE svg PUBLIC "-//W3C//DTD SVG 20010904//EN"
 "http://www.w3.org/TR/2001/REC-SVG-20010904/DTD/svg10.dtd">
<svg version="1.0" xmlns="http://www.w3.org/2000/svg"
 width="260.000000pt" height="260.000000pt" viewBox="0 0 260.000000 260.000000"
 preserveAspectRatio="xMidYMid meet">
<metadata>
Created by potrace 1.11, written by Peter Selinger 2001-2013
</metadata>
<g transform="translate(0.000000,260.000000) scale(0.100000,-0.100000)"
fill="#000000" stroke="none">
<path d="M1404 2530 c-49 -11 -102 -48 -126 -88 -13 -20 -32 -38 -43 -40 -72
-12 -144 -74 -163 -143 -14 -54 -9 -83 73 -404 43 -165 78 -307 78 -315 0 -8
-7 -31 -16 -51 -20 -44 -12 -78 31 -141 62 -90 144 -155 244 -192 l63 -24 2
-256 c2 -232 0 -261 -18 -313 -38 -113 -109 -192 -217 -245 -65 -32 -70 -33
-218 -37 -159 -3 -225 5 -298 39 -56 25 -140 101 -172 156 -54 92 -56 112 -58
481 -2 258 -5 345 -15 356 -13 17 -47 15 -65 -3 -16 -16 -16 -648 -1 -720 42
-193 177 -337 361 -385 57 -15 340 -23 375 -11 8 3 27 8 42 10 50 9 150 62
200 106 82 73 144 184 162 290 9 53 9 561 1 588 -5 15 -24 26 -64 37 -106 31
-183 83 -239 162 -32 45 -43 83 -23 83 5 0 24 -21 41 -47 44 -65 82 -98 156
-134 161 -81 363 -27 466 124 21 31 43 57 48 57 20 0 7 -45 -26 -90 -55 -75
-133 -126 -237 -155 -31 -9 -60 -23 -64 -33 -4 -9 -9 -138 -10 -287 -2 -317
-3 -324 -41 -415 -34 -82 -52 -108 -118 -175 -67 -67 -166 -128 -227 -141 -13
-2 -36 -7 -53 -10 -59 -13 -304 -10 -371 4 -177 36 -328 168 -393 345 l-26 72
-3 360 c-3 320 -5 361 -19 373 -22 16 -38 15 -58 -4 -15 -15 -16 -54 -13 -383
4 -359 4 -367 29 -437 71 -204 224 -348 434 -410 46 -13 97 -18 220 -18 225 0
261 6 390 70 143 71 260 209 311 368 25 78 26 91 29 351 2 149 3 273 4 276 1
4 13 10 29 13 53 13 147 66 192 108 112 106 149 198 106 259 -10 15 0 67 66
326 91 357 95 381 78 425 -29 74 -103 138 -158 138 -11 0 -30 16 -45 39 -103
155 -327 108 -314 -65 6 -86 65 -137 154 -136 50 1 120 30 146 59 21 25 48 21
93 -13 43 -32 48 -69 23 -168 -12 -44 -22 -88 -24 -96 -9 -39 -117 -455 -118
-456 -1 -1 -17 -9 -35 -18 -17 -9 -44 -36 -58 -59 -35 -55 -79 -95 -134 -120
-62 -29 -168 -29 -230 -1 -51 24 -122 91 -140 133 -7 17 -26 35 -49 46 -34 15
-39 22 -53 78 -8 34 -43 172 -78 307 -34 135 -64 257 -66 271 -5 38 34 90 76
104 32 11 37 9 78 -22 64 -48 140 -59 205 -28 49 23 79 73 79 130 0 101 -89
169 -188 145z m74 -96 c27 -18 29 -65 5 -89 -12 -13 -28 -16 -60 -12 -75 8
-97 49 -45 85 50 35 69 38 100 16z m450 -12 c13 -8 27 -23 33 -33 8 -16 4 -22
-23 -39 -64 -39 -128 -19 -128 40 0 55 58 71 118 32z"/>
</g>
</svg>
